# xmcd
#
# Track frame offsets: 
#        150
#        11157
#        20682
#        31152
#        41117
#        51582
#        62695
#        73682
#        87075
#        101395
#        113597
#        125107
#        136547
#        145882
#        156477
#        167052
#
# Disc length: 2542 seconds
#
# Revision: 2
# Processed by: cddbd v1.5.1PL0 Copyright (c) Steve Scherf et al.
# Submitted via: ExactAudioCopy v0.95a5
#
DISCID=de09ec10
DTITLE=Various Artist - Chicken Fried Country - Disc 2
DYEAR=1900
DGENRE=Country
TTITLE0=Tammy Wynette and George Jones /We're Not The Jet Set
TTITLE1=Little Jimmy Dickens /When The Ship Hit The Sand
TTITLE2=Ernest Tubb and Loretta Lynn /Who's Gonna Take The Garbage Out
TTITLE3=Bobby Bare /Dropkick Me Jesus
TTITLE4=Buck Owens /Waitin' In Your Welfare Line
TTITLE5=Norma Jean /You're Driving Me Out Of My Mind
TTITLE6=Kinky Friedman /Get Your Biscuits In The Oven And Your Bunds I
TTITLE6=n Bed
TTITLE7=Waylon Jennings /I May Be Used But I Ain't Used Up
TTITLE8=Ray Stevens /I'm Kissin' You Goodbye
TTITLE9=John Anderson /Chicken Truck
TTITLE10=Jean Shepard and Ray Pillow /I'll Take The Dog
TTITLE11=Tempall Glaser /Put Another Log On The Fire
TTITLE12=Willie Nelson with Mary Kay Place /Something To Brag About
TTITLE13=The Statler Brothers /Flowers On The Wall
TTITLE14=George Jones /Her Name Is
TTITLE15=David Allan Coe /You Never Even Called Me By My Name
EXTD=ID3G: 2
EXTT0=
EXTT1=
EXTT2=
EXTT3=
EXTT4=
EXTT5=
EXTT6=
EXTT7=
EXTT8=
EXTT9=
EXTT10=
EXTT11=
EXTT12=
EXTT13=
EXTT14=
EXTT15=
PLAYORDER=
